<svg width="179" height="41" viewBox="0 0 179 41" fill="none" xmlns="http://www.w3.org/2000/svg">
<path d="M65.7646 15.343H60.1966V12.799H74.4766V15.343H68.8846V29.887H65.7646V15.343ZM81.0295 17.479C81.4935 17.479 81.8935 17.543 82.2295 17.671L82.2055 20.407C81.6935 20.199 81.1655 20.095 80.6215 20.095C79.5975 20.095 78.8135 20.391 78.2695 20.983C77.7415 21.575 77.4775 22.359 77.4775 23.335V29.887H74.5015V21.199C74.5015 19.919 74.4375 18.775 74.3095 17.767H77.1175L77.3575 19.903C77.6615 19.119 78.1415 18.519 78.7975 18.103C79.4535 17.687 80.1975 17.479 81.0295 17.479ZM95.2576 17.767V29.887H92.3056V27.943C91.9376 28.615 91.4096 29.143 90.7216 29.527C90.0336 29.895 89.2496 30.079 88.3696 30.079C87.3136 30.079 86.3776 29.823 85.5616 29.311C84.7456 28.799 84.1136 28.071 83.6656 27.127C83.2176 26.183 82.9936 25.087 82.9936 23.839C82.9936 22.591 83.2176 21.487 83.6656 20.527C84.1296 19.551 84.7696 18.799 85.5856 18.271C86.4016 17.727 87.3296 17.455 88.3696 17.455C89.2496 17.455 90.0336 17.647 90.7216 18.031C91.4096 18.399 91.9376 18.919 92.3056 19.591V17.767H95.2576ZM89.1856 27.727C90.1776 27.727 90.9456 27.383 91.4896 26.695C92.0336 26.007 92.3056 25.039 92.3056 23.791C92.3056 22.511 92.0336 21.527 91.4896 20.839C90.9456 20.151 90.1696 19.807 89.1616 19.807C88.1696 19.807 87.3936 20.167 86.8336 20.887C86.2896 21.591 86.0176 22.575 86.0176 23.839C86.0176 25.087 86.2896 26.047 86.8336 26.719C87.3936 27.391 88.1776 27.727 89.1856 27.727ZM104.261 14.599C102.965 14.599 102.317 15.311 102.317 16.735V17.767H105.029V20.023H102.317V29.887H99.3169V20.023H97.0129V17.767H99.3169V16.591C99.3169 15.151 99.6769 14.047 100.397 13.279C101.133 12.495 102.181 12.103 103.541 12.103C104.293 12.103 104.925 12.199 105.437 12.391V14.767C104.989 14.655 104.597 14.599 104.261 14.599ZM118.812 17.767V29.887H115.86V27.943C115.492 28.615 114.964 29.143 114.276 29.527C113.588 29.895 112.804 30.079 111.924 30.079C110.868 30.079 109.932 29.823 109.116 29.311C108.3 28.799 107.668 28.071 107.22 27.127C106.772 26.183 106.548 25.087 106.548 23.839C106.548 22.591 106.772 21.487 107.22 20.527C107.684 19.551 108.324 18.799 109.14 18.271C109.956 17.727 110.884 17.455 111.924 17.455C112.804 17.455 113.588 17.647 114.276 18.031C114.964 18.399 115.492 18.919 115.86 19.591V17.767H118.812ZM112.74 27.727C113.732 27.727 114.5 27.383 115.044 26.695C115.588 26.007 115.86 25.039 115.86 23.791C115.86 22.511 115.588 21.527 115.044 20.839C114.5 20.151 113.724 19.807 112.716 19.807C111.724 19.807 110.948 20.167 110.388 20.887C109.844 21.591 109.572 22.575 109.572 23.839C109.572 25.087 109.844 26.047 110.388 26.719C110.948 27.391 111.732 27.727 112.74 27.727ZM122.08 12.223H125.056V29.887H122.08V12.223ZM140.049 17.767V29.503C140.049 31.391 139.529 32.823 138.489 33.799C137.449 34.775 135.921 35.263 133.905 35.263C132.033 35.263 130.385 34.871 128.961 34.087L129.441 31.807C130.913 32.575 132.377 32.959 133.833 32.959C135.993 32.959 137.073 31.887 137.073 29.743V27.343C136.705 27.999 136.169 28.535 135.465 28.951C134.761 29.351 133.969 29.551 133.089 29.551C132.033 29.551 131.089 29.303 130.257 28.807C129.441 28.295 128.801 27.583 128.337 26.671C127.889 25.743 127.665 24.687 127.665 23.503C127.665 22.319 127.889 21.271 128.337 20.359C128.801 19.431 129.441 18.719 130.257 18.223C131.089 17.711 132.033 17.455 133.089 17.455C133.985 17.455 134.777 17.647 135.465 18.031C136.169 18.399 136.705 18.919 137.073 19.591V17.767H140.049ZM133.881 27.199C134.873 27.199 135.649 26.871 136.209 26.215C136.785 25.559 137.073 24.655 137.073 23.503C137.073 22.351 136.793 21.447 136.233 20.791C135.673 20.135 134.889 19.807 133.881 19.807C132.889 19.807 132.105 20.135 131.529 20.791C130.969 21.447 130.689 22.351 130.689 23.503C130.689 24.655 130.969 25.559 131.529 26.215C132.105 26.871 132.889 27.199 133.881 27.199ZM154.883 17.767V29.887H151.931V27.943C151.563 28.615 151.035 29.143 150.347 29.527C149.659 29.895 148.875 30.079 147.995 30.079C146.939 30.079 146.003 29.823 145.187 29.311C144.371 28.799 143.739 28.071 143.291 27.127C142.843 26.183 142.619 25.087 142.619 23.839C142.619 22.591 142.843 21.487 143.291 20.527C143.755 19.551 144.395 18.799 145.211 18.271C146.027 17.727 146.955 17.455 147.995 17.455C148.875 17.455 149.659 17.647 150.347 18.031C151.035 18.399 151.563 18.919 151.931 19.591V17.767H154.883ZM148.811 27.727C149.803 27.727 150.571 27.383 151.115 26.695C151.659 26.007 151.931 25.039 151.931 23.791C151.931 22.511 151.659 21.527 151.115 20.839C150.571 20.151 149.795 19.807 148.787 19.807C147.795 19.807 147.019 20.167 146.459 20.887C145.915 21.591 145.643 22.575 145.643 23.839C145.643 25.087 145.915 26.047 146.459 26.719C147.019 27.391 147.803 27.727 148.811 27.727ZM164.678 17.479C165.142 17.479 165.542 17.543 165.878 17.671L165.854 20.407C165.342 20.199 164.814 20.095 164.27 20.095C163.246 20.095 162.462 20.391 161.918 20.983C161.39 21.575 161.126 22.359 161.126 23.335V29.887H158.15V21.199C158.15 19.919 158.086 18.775 157.958 17.767H160.766L161.006 19.903C161.31 19.119 161.79 18.519 162.446 18.103C163.102 17.687 163.846 17.479 164.678 17.479Z" fill="#233348"/>
<ellipse cx="23.7527" cy="20.1138" rx="22.8065" ry="20.1138" fill="#458FF6"/>
<path d="M21.7521 15.1498H15.7201V12.3938H31.1901V15.1498H25.1321V30.9058H21.7521V15.1498Z" fill="white"/>
</svg>
